<svg width="31px" height="28px" viewBox="0 0 31 28" version="1.1" xmlns="http://www.w3.org/2000/svg" xmlns:xlink="http://www.w3.org/1999/xlink">
    <!-- Generator: Sketch 46 (44423) - http://www.bohemiancoding.com/sketch -->
    <desc>Created with Sketch.</desc>
    <defs></defs>
    <g id="Page-1" stroke="none" stroke-width="1" fill="none" fill-rule="evenodd">
        <g id="premium-homepage--categories" transform="translate(-137.000000, -347.000000)" fill="#FFFFFF">
            <g id="catalog" transform="translate(120.000000, 329.000000)">
                <g id="armchair_icon" transform="translate(17.000000, 18.000000)">
                    <path d="M26.9334045,8.33540268 C26.759523,8.33600911 26.5858256,8.34694122 26.4132036,8.3681429 L26.4132036,5.86954682 C26.4374791,2.65785519 23.8946483,0.0322087156 20.7287886,1.77635684e-15 L10.3740316,1.77635684e-15 C7.20643533,0.0303223142 4.66081665,2.65610125 4.68367134,5.86954682 L4.68367134,8.3793435 C4.47980495,8.35019524 4.27422707,8.33508294 4.06834806,8.3341103 C1.80417984,8.35566826 -0.0156212597,10.2322232 0.000165151765,12.529167 C-0.015863261,14.1917333 1.13644166,15.6306371 2.74385302,15.9552591 L2.74385302,24.2988469 C2.73560738,25.480676 3.67200331,26.4462188 4.83697135,26.4571169 L7.71909634,26.4571169 L7.71909634,27.353596 C7.71909634,27.7104761 8.00428227,27.9997846 8.35607696,27.9997846 C8.70787164,27.9997846 8.99305758,27.7104761 8.99305758,27.353596 L8.99305758,26.4553938 L22.0069964,26.4553938 L22.0069964,27.3518728 C22.0069964,27.7098236 22.2930378,28 22.6458879,28 C22.998738,28 23.2847795,27.7098236 23.2847795,27.3518728 L23.2847795,26.4553938 L26.2679721,26.4553938 C27.4326073,26.4440237 28.3684888,25.4786197 28.3602411,24.2971237 L28.3602411,15.9358735 C29.9137394,15.5607881 31.0075506,14.1491249 30.9998888,12.529167 C31.0163793,10.2328145 29.1969991,8.35648823 26.9334045,8.33540268 L26.9334045,8.33540268 Z M26.7644112,11.9466725 C27.1154946,11.93755 27.3954262,11.6462049 27.3954262,11.2899294 C27.3954262,10.933654 27.1154946,10.6423089 26.7644112,10.6331864 C25.4328559,10.6459783 24.3628655,11.7499383 24.3727613,13.1007654 C24.3730485,14.4866737 25.3293357,15.6833236 26.6658915,15.9702738 L26.6658915,24.3039533 C26.6689556,24.7638079 26.3046961,25.1394982 25.8514056,25.1439985 L4.42337747,25.1439985 C3.96975426,25.1399701 3.60498032,24.7641411 3.60804227,24.3039533 L3.60804227,15.9491649 C4.90105218,15.6280408 5.80871547,14.4499 5.80350215,13.099473 C5.81127906,11.7483943 4.74024858,10.6455065 3.40845501,10.6331864 C3.05737153,10.6423089 2.77743994,10.933654 2.77743994,11.2899294 C2.77743994,11.6462049 3.05737153,11.93755 3.40845501,11.9466725 C4.03114642,11.9528309 4.53147058,12.4690589 4.52699298,13.1007654 C4.53335546,13.9810058 3.83619353,14.7003863 2.96851372,14.7089135 C1.79653651,14.6958934 0.855960734,13.7232232 0.865628363,12.5342734 C0.855500183,10.9588777 2.10438148,9.67247829 3.6573021,9.65873392 C5.68783704,9.67721563 7.3204393,11.3596277 7.30677642,13.4195518 L7.30677642,21.2048326 C7.3046554,21.5642116 7.58950777,21.8576126 7.94375704,21.8609294 L22.2333557,21.8609294 C22.5876049,21.8576126 22.8724573,21.5642116 22.8703363,21.2048326 L22.8703363,13.4195518 C22.8566734,11.3596277 24.4892757,9.67721563 26.5198106,9.65873392 C28.0717952,9.67342201 29.3191605,10.9598253 29.3080871,12.5342734 C29.3179891,13.7233192 28.3772781,14.6961292 27.2052018,14.7089135 C26.3374544,14.7003863 25.6401707,13.9810761 25.6462978,13.1007654 C25.6418191,12.4692253 26.1418862,11.9530667 26.7644112,11.9466725 L26.7644112,11.9466725 Z M10.4694563,1.75613344 L20.8242133,1.75613344 C23.2802307,1.77982194 25.2538484,3.81588808 25.2359411,6.30745543 L25.2359411,9.12656108 C23.3415033,9.90843799 22.1024939,11.7762759 22.1019964,13.8510616 L22.1019964,16.9191653 L9.08848227,16.9191653 L9.08848227,13.8510616 C9.10111934,11.8130428 7.90687077,9.96639509 6.05900243,9.16662477 L6.05900243,6.30745543 C6.04109405,3.81605464 8.01445452,1.78005788 10.4703056,1.75613344 L10.4694563,1.75613344 Z M8.655545,21.1783794 L8.655545,18.4394011 L21.6694838,18.4394011 L21.6694838,21.1783794 L8.65639431,21.1783794 L8.655545,21.1783794 Z" id="armchair_icon.svg"></path>
                </g>
            </g>
        </g>
    </g>
</svg>
