<svg width="37px" height="31px" viewBox="0 0 37 31" version="1.1" xmlns="http://www.w3.org/2000/svg" xmlns:xlink="http://www.w3.org/1999/xlink">
    <!-- Generator: Sketch 46 (44423) - http://www.bohemiancoding.com/sketch -->
    <desc>Created with Sketch.</desc>
    <defs></defs>
    <g id="Page-1" stroke="none" stroke-width="1" fill="none" fill-rule="evenodd">
        <g id="premium-homepage--categories" transform="translate(-134.000000, -549.000000)" fill="#FFFFFF">
            <g id="catalog" transform="translate(120.000000, 329.000000)">
                <g id="shower_icon" transform="translate(14.000000, 220.000000)">
                    <path d="M34.7658576,13.8038182 L32.736687,13.8038182 L32.736687,4.47358724 C32.736687,1.75575744 31.1509444,0 28.6963429,0 C27.2158959,0.01201118 25.8574447,0.810503571 25.1439195,2.08810076 C24.2765603,2.16934024 22.2873832,2.50069883 21.733973,3.83204155 C21.5699769,4.2253771 21.7600206,4.67524644 22.158904,4.83793399 L26.6141808,6.64440456 C26.8057585,6.72155816 27.0206194,6.72054351 27.211437,6.6415841 C27.4022547,6.56262468 27.5533765,6.41219749 27.6315157,6.22343636 C28.1589301,4.95314634 27.0781055,3.39482545 26.5566902,2.74934087 C27.0077003,2.00669142 27.8182563,1.54833495 28.6968428,1.53911883 C30.2500906,1.53911883 31.17794,2.63609796 31.17794,4.47309488 L31.17794,13.8033258 L17.1497171,13.8033258 C17.0857275,13.1775357 16.3688439,12.38582 11.5856203,12.38582 C6.82189358,12.38582 6.09701125,13.178028 6.02302326,13.8033258 L2.23513812,13.8033258 C0.999426573,13.8063126 -0.000554201733,14.7940381 9.32004019e-07,16.0110702 C-0.000319276446,16.2152706 0.0818827145,16.4112024 0.228463847,16.5556209 L1.45476479,17.7668276 L1.45476479,19.7426702 C1.45476479,24.0360535 2.66206882,26.5667863 5.36562997,27.9394873 L4.65174585,29.9778597 C4.51052204,30.3786744 4.72595004,30.8163526 5.13291779,30.9554412 C5.53988554,31.0945299 5.98428267,30.8823591 6.12550662,30.4815444 L6.81089537,28.5234268 C9.65593355,29.4141069 13.5627994,29.4141069 18.5004979,29.4141069 C23.1732394,29.4141069 27.2130836,29.4141069 30.1591054,28.4367714 L30.8749892,30.4815444 C30.9834594,30.7914871 31.2794999,30.9996346 31.6123695,31 C31.9106677,30.9990384 32.1823127,30.8306806 32.3122559,30.5662304 C32.4026001,30.3826154 32.4153636,30.1712179 32.3477502,29.978352 L31.5978719,27.8360916 C34.2899349,26.4210476 35.5442313,23.8479718 35.5442313,19.7426702 L35.5442313,17.7668276 L36.7700323,16.5566056 C36.9178821,16.4125016 37.0007426,16.2159334 36.999995,16.0110702 C37.0005507,14.7945017 36.0010977,13.807076 34.7658576,13.8038182 L34.7658576,13.8038182 Z M3.01451161,18.2202916 L6.01402472,18.2202916 L6.01402472,21.2793272 C6.01402472,21.7505162 6.01402472,22.8548807 11.5841206,22.8548807 C17.1542164,22.8548807 17.1547163,21.7524856 17.1547163,21.2793272 L17.1547163,18.2202916 L33.9844845,18.2202916 L33.9844845,19.7466091 C33.9844845,27.5495378 29.2352554,27.8784346 18.4989981,27.8784346 C7.86572414,27.8784346 3.01301185,27.8784346 3.01301185,19.7466091 L3.01301185,18.2202916 L3.01451161,18.2202916 Z M7.57427145,20.9474763 L7.57427145,20.5964232 L15.5964693,20.5964232 L15.5964693,20.9474763 C12.9451795,21.4344226 10.2252526,21.4335879 7.57427145,20.9450145 L7.57427145,20.9474763 Z M7.57427145,19.0563197 L7.57427145,14.291255 C10.2252692,13.8038175 12.9449716,13.8038175 15.5959693,14.291255 L15.5959693,19.0533655 L7.57477137,19.0533655 L7.57427145,19.0563197 Z M2.2346382,15.3463835 L6.01552447,15.3463835 L6.01552447,16.6806804 L2.55708586,16.6806804 L1.61373899,15.7491344 C1.72024802,15.5040691 1.96447522,15.3448092 2.23513812,15.3439217 L2.2346382,15.3463835 Z M35.385757,15.7491344 L34.4419102,16.6806804 L17.1557162,16.6806804 L17.1557162,15.3463835 L34.7658576,15.3463835 C35.0350436,15.3465553 35.2785826,15.5036896 35.3862569,15.7466726 L35.385757,15.7491344 Z M26.0022802,4.72961469 L23.9481136,3.89703313 C24.3755201,3.75581529 24.8180403,3.66362691 25.2668995,3.62229599 C25.5534727,3.96303094 25.8001554,4.33447983 26.0022802,4.72961469 L26.0022802,4.72961469 Z" id="shower_icon.svg"></path>
                </g>
            </g>
        </g>
    </g>
</svg>
