<svg width="37px" height="28px" viewBox="0 0 37 28" version="1.1" xmlns="http://www.w3.org/2000/svg" xmlns:xlink="http://www.w3.org/1999/xlink">
    <!-- Generator: Sketch 46 (44423) - http://www.bohemiancoding.com/sketch -->
    <desc>Created with Sketch.</desc>
    <defs></defs>
    <g id="Page-1" stroke="none" stroke-width="1" fill="none" fill-rule="evenodd">
        <g id="premium-homepage--categories" transform="translate(-134.000000, -482.000000)" fill="#FFFFFF">
            <g id="catalog" transform="translate(120.000000, 329.000000)">
                <g id="bad_icon" transform="translate(14.000000, 153.000000)">
                    <path d="M2.85067257,1.40055639 C3.23982565,1.39777324 3.55328882,1.08302228 3.55142202,0.696928065 C3.54955522,0.310833853 3.23306286,-0.000919000506 2.84390077,2.03556773e-06 C2.45473868,0.000923071641 2.13974908,0.314170463 2.13973897,0.700269118 C2.14126893,1.08836917 2.45949119,1.40182601 2.85067257,1.40055639 L2.85067257,1.40055639 Z M34.14979,1.40055639 C34.5388805,1.3975207 34.8521112,1.08265995 34.8500753,0.696626736 C34.8480395,0.310593523 34.531505,-0.000998078833 34.1424038,5.86960818e-06 C33.7533025,0.00100981805 33.4384059,0.314230621 33.4383938,0.700269118 C33.4391284,0.886727546 33.5144919,1.06525944 33.6479049,1.19658908 C33.7813179,1.32791873 33.9618516,1.40128807 34.14979,1.40055639 L34.14979,1.40055639 Z M36.2913791,19.5965528 L36.2539129,19.5965528 L36.2539129,18.2010262 C36.2498061,17.1117844 35.7335309,16.0868558 34.8579483,15.4297059 C34.8579483,15.4163976 34.8579483,15.4030894 34.8579483,15.3897812 L34.8579483,2.81306242 C34.8606666,2.62659882 34.7886032,2.44670292 34.6576153,2.31295964 C34.5266273,2.17921636 34.3474476,2.1025843 34.1595035,2.09992585 L34.1437769,2.09992585 C33.7535009,2.10320752 33.4393718,2.41896642 33.4411691,2.80617887 L33.4411691,4.19619861 L30.0285029,4.19619861 L27.0987349,2.93558975 C21.6140103,0.579278576 15.3910777,0.579278576 9.90635314,2.93558975 L6.97658516,4.19619861 L3.56068107,4.19619861 L3.56068107,2.81168571 C3.56352329,2.62526495 3.49156366,2.44536761 3.36064914,2.31161074 C3.22973462,2.17785386 3.05060159,2.10120693 2.86269877,2.09854914 L2.83587109,2.09854914 C2.44620154,2.10633388 2.13611757,2.42505115 2.14205171,2.81168571 L2.14205171,15.3819799 C1.22963313,16.0358007 0.687266137,17.0829986 0.682718272,18.1996495 L0.682718272,19.5979295 C0.304375367,19.6104592 0.00325996988,19.9166923 0,20.292251 L0,25.1960975 C-4.00807656e-08,25.3825133 0.0746727735,25.5612873 0.207578277,25.6930602 C0.34048378,25.824833 0.520725471,25.8988011 0.708620862,25.8986793 L2.8460471,25.8986793 L2.8460471,28 L8.53814131,28 L8.53814131,25.9018916 L11.3841884,25.9018916 C11.6392391,25.9301378 11.8896463,25.8188159 12.0381533,25.6111627 C12.1866604,25.4035094 12.2098646,25.1322482 12.0987537,24.9027351 C11.9876427,24.673222 11.7597262,24.5216252 11.5035254,24.5068239 C11.4638123,24.5036106 11.4239015,24.5036106 11.3841884,24.5068239 L1.42973047,24.5068239 L1.42973047,21.0017164 L22.0555931,21.0017164 C22.4466981,21.0017164 22.7637514,20.6871598 22.7637514,20.2991346 C22.7637514,19.9111094 22.4466981,19.5965528 22.0555931,19.5965528 L2.1119862,19.5965528 L2.1119862,18.2010262 C2.1109685,17.6413556 2.3358169,17.1045719 2.73635327,16.7104659 C3.13688964,16.31636 3.67977686,16.0977337 4.24386189,16.1033767 L32.6941569,16.1033767 C33.2582843,16.0977347 33.8012183,16.3163466 34.2018279,16.710439 C34.6024374,17.1045315 34.8273891,17.6413134 34.8264951,18.2010262 L34.8264951,19.5965528 L27.7495375,19.5965528 C27.3584324,19.5965528 27.0413791,19.9111094 27.0413791,20.2991346 C27.0413791,20.6871598 27.3584324,21.0017164 27.7495375,21.0017164 L35.5735074,21.0017164 L35.5735074,24.5049883 L17.0776703,24.5049883 C16.8227776,24.4769498 16.5726107,24.58828 16.4242142,24.7957918 C16.2758176,25.0033036 16.2525424,25.274344 16.3634174,25.5037711 C16.4742925,25.7331983 16.7018709,25.8849106 16.9578708,25.900056 C16.9977383,25.9032679 17.0378027,25.9032679 17.0776703,25.900056 L28.4618587,25.900056 L28.4618587,28 L34.1539529,28 L34.1539529,25.9018916 L36.2858286,25.9018916 C36.4737254,25.9034803 36.6545553,25.8309152 36.7885032,25.7001739 C36.9224511,25.5694325 36.998534,25.3912349 37,25.2048167 L37,20.2986757 C37.0000002,20.112302 36.9253126,19.933575 36.7923937,19.801875 C36.6594749,19.670175 36.479232,19.5963092 36.2913791,19.5965528 L36.2913791,19.5965528 Z M7.12228723,26.6030967 L4.27670267,26.6030967 L4.27670267,25.900056 L7.12228723,25.900056 L7.12228723,26.6030967 Z M7.75227523,12.7529197 C7.72473603,12.2359105 7.59276519,11.7296624 7.36419892,11.2642356 C7.69605805,11.2195158 8.03334089,11.2890003 8.31981948,11.4611054 C8.87947969,11.720605 9.52305674,11.7359145 10.0946095,11.5033246 C10.5151718,11.354164 10.9526353,11.2569106 11.3971397,11.2137562 L12.0909591,11.2137562 C12.5325717,11.2404013 12.969625,11.317392 13.3934893,11.4432081 C13.9148965,11.6195055 14.4755158,11.6481103 15.0124012,11.5258108 C15.3853813,11.4264336 15.7641444,11.3498063 16.1465647,11.2963589 C15.9361061,11.7910573 15.7140839,11.897523 15.7372112,12.7845841 L15.7834658,14.6977542 L7.80084258,14.6977542 L7.75227523,12.7529197 Z M21.2688019,12.7529197 C21.2413811,12.2358383 21.1092392,11.7295374 20.880263,11.2642356 C21.2121235,11.2194782 21.5494189,11.2889653 21.8358836,11.4611054 C22.3955438,11.720605 23.0391208,11.7359145 23.6106736,11.5033246 C24.0312502,11.3542132 24.4687076,11.2569611 24.9132038,11.2137562 L25.6070232,11.2137562 C26.0486358,11.2404013 26.4856891,11.317392 26.9095535,11.4432081 C27.4309606,11.6195055 27.9915799,11.6481103 28.5284653,11.5258108 C28.9014574,11.4264838 29.2802174,11.3498571 29.6626288,11.2963589 C29.4521702,11.7910573 29.2296855,11.897523 29.2528128,12.7845841 L29.3013801,14.6977542 L21.3173692,14.6977542 L21.2688019,12.7529197 Z M30.7172342,14.6977542 L30.6677418,12.7524608 C30.632642,12.065804 30.8084504,11.3847502 31.1719172,10.7993661 C31.2813334,10.6483629 31.3253024,10.4602029 31.2940211,10.2768375 C31.2627397,10.0934721 31.1588088,9.93014729 31.0054005,9.82327757 C30.8822507,9.73700159 30.7347675,9.69154709 30.5840209,9.69340778 L30.5840209,9.69340778 C30.5529889,9.69496144 30.5220891,9.69848693 30.4915117,9.70396257 C29.6949949,9.81562855 28.9058834,9.97423082 28.1283628,10.1789281 C27.8346155,10.2123487 27.5370538,10.1810091 27.2569257,10.0871473 C26.7209689,9.92849507 26.1668816,9.83797949 25.6079483,9.81777073 L24.9141289,9.81777073 C24.3334791,9.84360739 23.7599483,9.95512122 23.2124212,10.1486404 C23.0000222,10.2358627 22.768594,10.267467 22.5403415,10.2404212 C21.7091802,9.78395114 20.7551911,9.59609958 19.8113186,9.70304476 C19.6260533,9.73348038 19.4606494,9.83590549 19.3517053,9.98765687 C19.2427611,10.1394082 19.1992585,10.3279749 19.2308231,10.5116333 C19.2400552,10.5642167 19.2555834,10.6155183 19.2770777,10.6644483 C19.5491616,11.3467695 19.7428048,12.0573613 19.8543354,12.7827485 L19.9005901,14.6959186 L17.2025578,14.6959186 L17.1535279,12.7506252 C17.1180256,12.0639899 17.2936917,11.382863 17.6572407,10.7975304 C17.7666104,10.6464709 17.810505,10.4582721 17.7791359,10.2749022 C17.7477669,10.0915324 17.643743,9.92824104 17.4902615,9.82144196 C17.3672542,9.73522995 17.2199382,9.68977706 17.0693444,9.69157217 L17.0693444,9.69157217 C17.0383083,9.69307696 17.0074054,9.69660281 16.9768352,9.70212696 C16.1803185,9.81379294 15.3912069,9.9723952 14.6136864,10.1770924 C14.3199391,10.2105282 14.022374,10.1791883 13.7422492,10.0853117 C13.2063015,9.92662077 12.6522091,9.83610438 12.0932718,9.81593511 L11.3994524,9.81593511 C10.8188026,9.84177177 10.2452718,9.95328561 9.69774477,10.1468048 C9.48534573,10.234027 9.25391753,10.2656314 9.02566507,10.2385856 C8.19450372,9.78211552 7.24051468,9.59426396 6.29664216,9.70120915 C6.08328746,9.73538748 5.89760455,9.86495795 5.79305488,10.0526149 C5.6885052,10.2402719 5.67669093,10.4651905 5.7610136,10.6626127 C6.03331165,11.3448967 6.22711198,12.0554954 6.33873387,12.7809129 L6.3849885,14.694083 L4.24663716,14.694083 C4.01759347,14.694495 3.78912146,14.7167781 3.56438144,14.760624 L3.56438144,5.60549233 L7.27168967,5.60549233 L10.4748225,4.22052052 C15.5971069,2.01823114 21.4098313,2.01823114 26.5321157,4.22052052 L29.7352485,5.60549233 L33.4411691,5.60549233 L33.4411691,14.7794391 C33.1962872,14.7270496 32.9465174,14.7004389 32.6960071,14.7000487 L30.7181593,14.7000487 L30.7172342,14.6977542 Z M32.7265352,26.6030967 L29.879563,26.6030967 L29.879563,25.900056 L32.7256101,25.900056 L32.7256101,26.6030967 L32.7265352,26.6030967 Z" id="bad_icon.svg"></path>
                </g>
            </g>
        </g>
    </g>
</svg>
