<svg width="27px" height="23px" viewBox="0 0 27 23" version="1.1" xmlns="http://www.w3.org/2000/svg" xmlns:xlink="http://www.w3.org/1999/xlink">
    <!-- Generator: Sketch 46 (44423) - http://www.bohemiancoding.com/sketch -->
    <desc>Created with Sketch.</desc>
    <defs></defs>
    <g id="Page-1" stroke="none" stroke-width="1" fill="none" fill-rule="evenodd">
        <g id="premium-homepage" transform="translate(-1259.000000, -3148.000000)" fill-rule="nonzero" fill="#FFFFFF">
            <g id="if_heart_226577-(1)" transform="translate(1259.000000, 3148.000000)">
                <path d="M24.9647299,2.00683595 C22.2509882,-0.668945316 17.8516171,-0.668945316 15.138165,2.00683595 L13.5000181,3.62178256 L11.8621608,2.00712142 C9.14841906,-0.668659838 4.74875845,-0.668659838 2.03530628,2.00712142 C-0.678435425,4.68290269 -0.678435425,9.02073436 2.03530628,11.6965156 L3.67316361,13.3106058 L13.5000181,23 L23.3268726,13.3106058 L24.9644404,11.6965156 C27.6784716,9.02073436 27.6784716,4.68261721 24.9647299,2.00683595 Z M20.0511579,13.3111768 L13.5000181,19.7706777 L6.94916781,13.3111768 L3.67374267,10.081569 C1.86448502,8.29790515 1.86448502,5.40573189 3.67374267,3.62149708 C5.48300031,1.83783323 8.41591436,1.83783323 10.2248825,3.62149708 L13.5000181,6.85167578 L16.7757328,3.62178256 C18.5847009,1.8381187 21.5179045,1.8381187 23.3268726,3.62178256 C25.1358407,5.40601737 25.1358407,8.29761968 23.3268726,10.0818545 L20.0511579,13.3111768 Z" id="Shape"></path>
            </g>
        </g>
    </g>
</svg>
