<svg width="60px" height="60px" viewBox="0 0 60 60" version="1.1" xmlns="http://www.w3.org/2000/svg" xmlns:xlink="http://www.w3.org/1999/xlink">
    <!-- Generator: Sketch 46 (44423) - http://www.bohemiancoding.com/sketch -->
    <desc>Created with Sketch.</desc>
    <defs></defs>
    <g id="Page-1" stroke="none" stroke-width="1" fill="none" fill-rule="evenodd">
        <g id="premium-homepage--categories" transform="translate(-1184.000000, -1501.000000)" fill="#E83E32">
            <g id="insta" transform="translate(1184.000000, 1501.000000)">
                <path d="M39.271,22.578 L39.271,22.572 C39.773,22.572 40.276,22.582 40.779,22.57 C41.425,22.554 41.951,22 41.951,21.353 C41.951,20.39 41.951,19.426 41.951,18.463 C41.951,17.772 41.404,17.223 40.715,17.222 C39.754,17.222 38.793,17.221 37.832,17.222 C37.144,17.223 36.596,17.774 36.596,18.465 C36.595,19.42 36.592,20.375 36.599,21.33 C36.6,21.473 36.627,21.621 36.672,21.756 C36.845,22.264 37.311,22.576 37.881,22.579 C38.344,22.579 38.808,22.578 39.271,22.578 Z M30,23.817 C26.616,23.815 23.865,26.538 23.818,29.906 C23.769,33.366 26.538,36.107 29.858,36.178 C33.312,36.252 36.106,33.492 36.179,30.135 C36.254,26.675 33.462,23.815 30,23.817 Z M18.046,27.116 L18.046,27.198 C18.046,31.713 18.045,36.228 18.046,40.743 C18.046,41.392 18.608,41.951 19.258,41.951 C26.418,41.952 33.577,41.952 40.737,41.951 C41.393,41.951 41.952,41.394 41.952,40.739 C41.953,36.23 41.952,31.719 41.952,27.211 L41.952,27.117 L39.04,27.117 C39.451,28.431 39.577,29.768 39.416,31.131 C39.255,32.494 38.815,33.762 38.1,34.934 C37.385,36.106 36.456,37.079 35.321,37.852 C32.377,39.858 28.5,40.034 25.375,38.28 C23.796,37.395 22.556,36.16 21.69,34.567 C20.401,32.194 20.195,29.702 20.951,27.116 C19.983,27.116 19.021,27.116 18.046,27.116 Z M42.205,45.255 C42.364,45.229 42.523,45.206 42.68,45.172 C43.926,44.907 44.944,43.868 45.188,42.615 C45.213,42.478 45.233,42.342 45.255,42.206 L45.255,17.794 C45.234,17.661 45.215,17.526 45.19,17.393 C44.922,16.026 43.794,14.965 42.41,14.775 C42.352,14.768 42.297,14.755 42.24,14.745 L17.761,14.745 C17.614,14.772 17.465,14.792 17.32,14.825 C15.968,15.133 14.968,16.221 14.775,17.591 C14.767,17.648 14.755,17.705 14.746,17.762 L14.746,42.24 C14.774,42.394 14.796,42.551 14.831,42.705 C15.13,44.027 16.258,45.052 17.601,45.225 C17.665,45.233 17.731,45.246 17.796,45.255 L42.205,45.255 L42.205,45.255 Z M30,60 C13.432,60 0,46.568 0,30 C0,13.431 13.432,0 30,0 C46.568,0 60,13.431 60,30 C60,46.568 46.568,60 30,60 Z" id="Shape"></path>
            </g>
        </g>
    </g>
</svg>
