<svg width="31px" height="32px" viewBox="0 0 31 32" version="1.1" xmlns="http://www.w3.org/2000/svg" xmlns:xlink="http://www.w3.org/1999/xlink">
    <!-- Generator: Sketch 46 (44423) - http://www.bohemiancoding.com/sketch -->
    <desc>Created with Sketch.</desc>
    <defs></defs>
    <g id="Page-1" stroke="none" stroke-width="1" fill="none" fill-rule="evenodd">
        <g id="premium-homepage--categories" transform="translate(-137.000000, -615.000000)" fill="#FFFFFF">
            <g id="catalog" transform="translate(120.000000, 329.000000)">
                <g id="kids_room_icon" transform="translate(17.000000, 286.000000)">
                    <path d="M27.8110374,6.88263625 C26.4988303,6.8811687 25.320176,7.71097949 24.8424379,8.97262648 C24.3646999,10.2342735 24.6857588,11.6692654 25.6510681,12.5868469 L25.6510681,16.4172933 L5.34657121,16.4172933 L5.34657121,12.5868469 C6.31169084,11.6685334 6.63266037,10.2332822 6.1551576,8.97116242 C5.67765483,7.70904264 4.49936904,6.87826333 3.18682021,6.87826333 C1.87427138,6.87826333 0.695985583,7.70904264 0.218482814,8.97116242 C-0.259019956,10.2332822 0.0619495747,11.6685334 1.0270692,12.5868469 L1.0270692,32 L5.34657121,32 L5.34657121,29.8819885 L25.6510681,29.8819885 L25.6510681,32 L29.9727528,32 L29.9727528,12.5868469 C30.9382985,11.6690428 31.2592574,10.2336044 30.7810677,8.97178509 C30.3028781,7.70996573 29.1235635,6.8804241 27.8110374,6.88263625 Z M22.0583949,21.4099423 L22.0583949,28.5999155 L19.7102796,28.5999155 L19.7102796,21.4099423 L22.0583949,21.4099423 Z M22.0583949,17.7016195 L22.0583949,20.1256161 L19.7102796,20.1256161 L19.7102796,17.7016195 L22.0583949,17.7016195 L22.0583949,17.7016195 Z M18.4687774,21.4099423 L18.4687774,28.5999155 L16.1210986,28.5999155 L16.1210986,21.4099423 L18.4687774,21.4099423 Z M18.4687774,17.7016195 L18.4687774,20.1256161 L16.1210986,20.1256161 L16.1210986,17.7016195 L18.4687774,17.7016195 L18.4687774,17.7016195 Z M14.8769773,21.4099423 L14.8769773,28.5999155 L12.5288619,28.5999155 L12.5288619,21.4099423 L14.8769773,21.4099423 Z M14.8769773,17.7016195 L14.8769773,20.1256161 L12.5288619,20.1256161 L12.5288619,17.7016195 L14.8769773,17.7016195 L14.8769773,17.7016195 Z M11.2873598,21.4099423 L11.2873598,28.5999155 L8.93924443,28.5999155 L8.93924443,21.4099423 L11.2873598,21.4099423 Z M11.2873598,17.7016195 L11.2873598,20.1256161 L8.93924443,20.1256161 L8.93924443,17.7016195 L11.2873598,17.7016195 L11.2873598,17.7016195 Z M2.26813481,13.3227433 C2.38868619,13.3602136 2.51127418,13.3903086 2.63525974,13.4128714 L2.66538058,13.4178285 C3.00434649,13.4804729 3.35139604,13.4804729 3.69036195,13.4178285 C3.70602283,13.4174953 3.72157613,13.4150718 3.73663454,13.4106182 C3.86022786,13.3882475 3.98239115,13.3581494 4.10244987,13.3204901 L4.10244987,30.7152232 L2.26900788,30.7152232 L2.26900788,13.3204901 L2.26813481,13.3227433 Z M4.33861465,11.7797493 C4.26241944,11.837116 4.18281404,11.8894932 4.1002672,11.9365723 C4.09066345,11.9406281 4.08149624,11.9460358 4.05923302,11.9582031 C3.97604711,12.0021109 3.88963659,12.0391783 3.80080501,12.0690607 L3.75715163,12.0830306 C3.37816209,12.2045019 2.97213967,12.2026139 2.59422557,12.0776229 L2.56541434,12.0677088 C2.47701328,12.0378056 2.39103953,12.0007377 2.30829592,11.9568511 L2.28035776,11.94198 C2.19329238,11.8933819 2.10943996,11.8388853 2.02935082,11.778848 L2.01450867,11.7662301 C1.34402578,11.2457014 1.07214221,10.3402022 1.33989697,9.51945811 C1.60765173,8.69871406 2.35477108,8.14748128 3.19368848,8.15171056 C4.03260588,8.15593985 4.77447432,8.71467916 5.03445115,9.53808369 C5.29442798,10.3614882 5.01399035,11.264203 4.33861465,11.7779468 L4.33861465,11.7797493 Z M7.69512309,17.7016195 L7.69512309,20.1256161 L5.34657121,20.1256161 L5.34657121,17.7016195 L7.69512309,17.7016195 Z M7.69512309,21.4099423 L7.69512309,28.5999155 L5.34657121,28.5999155 L5.34657121,21.4099423 L7.69512309,21.4099423 Z M26.8969356,13.3213914 C27.0168461,13.3590523 27.1388643,13.3891505 27.2623144,13.4115195 L27.2911256,13.4169272 C27.6300717,13.4798017 27.9771609,13.4798017 28.316107,13.4169272 C28.3326504,13.4168911 28.3491074,13.4144642 28.3649988,13.4097169 C28.4887303,13.3873197 28.6110373,13.3572221 28.7312506,13.3195888 L28.7312506,30.7143219 L26.8978087,30.7143219 L26.8978087,13.3195888 L26.8969356,13.3213914 Z M28.9796384,11.7680327 L29.0451185,11.8581608 L28.968725,11.7779468 C28.889433,11.8374303 28.805971,11.8907526 28.7190277,11.9374736 L28.6875973,11.9564005 C28.598385,12.0008722 28.5066976,12.0398459 28.4130175,12.0731165 L28.3868255,12.0821293 C28.0147736,12.2013148 27.6164684,12.2013148 27.2444165,12.0821293 C27.2300109,12.0767216 27.2151687,12.0722152 27.1959613,12.0663569 C27.1086545,12.0339107 27.0213477,11.9960569 26.94801,11.9600056 L26.9043567,11.935671 C26.8155476,11.8881104 26.7305863,11.8332559 26.650294,11.7716378 C26.157748,11.3976617 25.867104,10.8039478 25.8675889,10.1727644 C25.8630255,9.22851976 26.4970442,8.40885356 27.3900627,8.20449402 C28.2830811,8.00013448 29.1932445,8.46642797 29.5756447,9.32420794 C29.9580448,10.1819879 29.7091169,11.1989432 28.9778922,11.7662301 L28.9796384,11.7680327 Z M25.6510681,21.4099423 L25.6510681,28.5999155 L23.3029528,28.5999155 L23.3029528,21.4099423 L25.6510681,21.4099423 Z M25.6510681,17.7016195 L25.6510681,20.1256161 L23.3029528,20.1256161 L23.3029528,17.7016195 L25.6510681,17.7016195 L25.6510681,17.7016195 Z M8.48088394,11.8694268 L8.24690182,13.2704689 C8.20978312,13.5107508 8.30580675,13.7523069 8.49572609,13.896409 C8.60164151,13.9763633 8.72945553,14.0194504 8.86066835,14.0194339 C8.96143923,14.0196942 9.06065879,13.9938166 9.14921719,13.9441769 L10.3684561,13.2835375 L11.587695,13.9441769 C11.7970423,14.0578951 12.0507206,14.0393892 12.2424957,13.896409 C12.4328876,13.7522558 12.5291253,13.510237 12.4917565,13.2695677 L12.2577744,11.8694268 L13.2430312,10.8780172 C13.413612,10.7080645 13.4753555,10.4525606 13.4020892,10.2198112 C13.3288229,9.98706188 13.1333797,9.81783391 12.898606,9.78386143 L11.5370571,9.58017181 L11.0132165,8.47925644 C11.1959202,6.35752597 12.8247629,4.67566627 14.880033,4.48657936 L14.880033,10.3241797 C14.7942118,10.3839038 14.7192862,10.4588098 14.6587104,10.5454443 L13.3962546,12.4101957 C13.18133,12.7110209 13.149394,13.1113469 13.3137497,13.4444163 C13.4996313,13.7904639 13.8559934,14.0016469 14.2392014,13.9928461 L16.7667321,13.9928461 C17.149909,14.0014779 17.5058695,13.7891656 17.6900011,13.4421631 C17.8560008,13.1086548 17.8240086,12.7067493 17.6074962,12.4056893 L16.3437308,10.539586 C16.2835078,10.4543551 16.2097033,10.3802988 16.1254639,10.3205746 L16.1254639,4.55823124 C17.9587778,4.95442106 19.322125,6.54693843 19.477607,8.47384875 L18.5818397,8.47384875 C18.2383142,8.47434569 17.9600194,8.76183546 17.959779,9.11646247 L17.959779,11.7662301 C17.9612223,12.1196848 18.2394469,12.405288 18.5818397,12.4047881 L21.6585299,12.4047881 C22.0001269,12.4045399 22.2770535,12.1188658 22.2775349,11.7662301 L22.2775349,9.11646247 C22.2780191,8.7627561 22.0011611,8.47533874 21.6585299,8.47384875 L20.7217284,8.47384875 C20.5502456,5.84251572 18.6447115,3.68025997 16.1232813,3.25587945 L16.1232813,0.642163076 C16.1232813,0.287506202 15.8447752,0 15.5012206,0 C15.157666,0 14.8791599,0.287506202 14.8791599,0.642163076 L14.8791599,3.19684551 C12.167646,3.38532348 9.9967769,5.59148564 9.7717144,8.38732573 L9.20422045,9.57521476 L7.84092538,9.78115758 C7.60688387,9.81600002 7.41238844,9.98517196 7.33942272,10.2173641 C7.26645699,10.4495563 7.32771422,10.7043761 7.49737327,10.8744121 L8.48088394,11.8694268 Z M10.9752381,11.7540628 L11.0507584,12.2047036 L10.657878,11.9901986 C10.4766381,11.8950403 10.2620479,11.8960473 10.0816534,11.9929024 L9.68877298,12.2060555 L9.76429332,11.7554147 C9.79825067,11.5465507 9.73126925,11.3337291 9.58487793,11.1853542 L9.26708132,10.8699056 L9.70754393,10.8027602 C9.9104304,10.7731713 10.0858107,10.6414387 10.1755082,10.4512604 L10.3710753,10.0420786 L10.567079,10.4512604 C10.656448,10.6415296 10.8317627,10.7733359 11.0346067,10.8027602 L11.4750693,10.8681031 L11.1572727,11.1876074 C11.0117051,11.3343575 10.9438851,11.544728 10.9752381,11.7522602 L10.9752381,11.7540628 Z M14.7054195,12.7116744 L15.4986014,11.5422617 L16.2922199,12.7116744 L14.7054195,12.7116744 Z M19.1990985,11.124067 L19.1990985,9.75682298 L21.0325404,9.75682298 L21.0325404,11.124067 L19.1990985,11.124067 Z" id="kids_room_icon.svg"></path>
                </g>
            </g>
        </g>
    </g>
</svg>
