<svg width="39px" height="24px" viewBox="0 0 39 24" version="1.1" xmlns="http://www.w3.org/2000/svg" xmlns:xlink="http://www.w3.org/1999/xlink">
    <!-- Generator: Sketch 46 (44423) - http://www.bohemiancoding.com/sketch -->
    <desc>Created with Sketch.</desc>
    <defs></defs>
    <g id="Page-1" stroke="none" stroke-width="1" fill="none" fill-rule="evenodd">
        <g id="premium-homepage--categories" transform="translate(-134.000000, -416.000000)" fill="#FFFFFF">
            <g id="catalog" transform="translate(120.000000, 329.000000)">
                <g id="kitchen_icon" transform="translate(14.000000, 87.000000)">
                    <path d="M38.46225,1.35137456 L28.809375,1.35137456 C28.5151583,1.34973812 28.2751894,1.58297264 28.273125,1.8725755 L28.273125,14.8520293 L0.535875,14.8520293 C0.24194963,14.8505964 0.00227010757,15.0835476 0,15.3728611 L0,23.4754686 C0.00103385646,23.7658857 0.240832492,24.0006044 0.535875,23.9999917 L38.46225,23.9999917 C38.6042692,24.0007768 38.7407724,23.9459203 38.8416529,23.8475211 C38.9425335,23.7491218 38.9995043,23.6152633 39,23.4754686 L39,1.8725755 C38.9990096,1.73323545 38.9417722,1.60000133 38.8409018,1.50223521 C38.7400314,1.40446908 38.6038071,1.35019525 38.46225,1.35137456 Z M10.343625,22.9509456 L1.072125,22.9509456 L1.072125,15.8981224 L10.343625,15.8981224 L10.343625,22.9509456 Z M18.619875,18.8990881 L18.619875,22.9509456 L11.416125,22.9509456 L11.416125,15.8981224 L18.619875,15.8981224 L18.619875,18.8990881 L18.619875,18.8990881 Z M28.275,22.9509456 L19.6875,22.9509456 L19.6875,19.9492416 L28.275,19.9492416 L28.275,22.9509456 Z M28.275,18.8990881 L19.6875,18.8990881 L19.6875,15.8981224 L28.275,15.8981224 L28.275,18.8990881 Z M37.92825,22.9509456 L29.3415,22.9509456 L29.3415,11.1759385 L37.926375,11.1759385 L37.926375,22.9509456 L37.92825,22.9509456 Z M37.92825,10.1254159 L29.3415,10.1254159 L29.3415,2.39746766 L37.926375,2.39746766 L37.926375,10.1254159 L37.92825,10.1254159 Z M30.342375,6.07466581 L30.342375,9.14761046 L31.414125,9.14761046 L31.414125,6.07466581 L30.342375,6.07466581 Z M30.342375,12.1493145 L30.342375,15.22189 L31.414125,15.22189 L31.414125,12.147838 L30.342375,12.147838 L30.342375,12.1493145 Z M8.2785,16.8759278 L8.2785,19.9492416 L9.347625,19.9492416 L9.347625,16.8759278 L8.2785,16.8759278 Z M17.086875,16.8759278 L12.946875,16.8759278 C12.6515641,16.8753146 12.4114901,17.1101395 12.41025,17.40082 L12.41025,20.7760759 C12.4116962,21.066612 12.6517098,21.3012129 12.946875,21.300599 L17.085,21.300599 C17.3799575,21.3010085 17.6196351,21.0664082 17.620875,20.7760759 L17.620875,17.40082 C17.6198413,17.1103434 17.3801033,16.8755189 17.085,16.8759278 L17.086875,16.8759278 Z M16.551,20.2511838 L13.484625,20.2511838 L13.484625,17.9257122 L16.551,17.9257122 L16.551,20.2511838 Z M21.070875,8.10188647 L18.887625,8.10188647 L17.0175,0.401253292 C16.9588525,0.164216161 16.7422171,-0.00194280967 16.494375,1.71565858e-05 L13.54125,1.71565858e-05 C13.2942903,-0.00124722849 13.078903,0.164907333 13.021125,0.401253292 L11.146125,8.10188647 L8.9625,8.10188647 L8.9625,9.14761046 L21.068625,9.14761046 L21.068625,8.10188647 L21.070875,8.10188647 Z M12.247875,8.10188647 L13.965375,1.04943237 L16.07025,1.04943237 L17.787375,8.10188647 L12.246,8.10188647 L12.247875,8.10188647 Z" id="kitchen_icon.svg"></path>
                </g>
            </g>
        </g>
    </g>
</svg>
