<?xml version="1.0" encoding="utf-8"?>
<!-- Generator: Adobe Illustrator 21.0.0, SVG Export Plug-In . SVG Version: 6.00 Build 0)  -->
<svg version="1.1" id="Layer_8" xmlns="http://www.w3.org/2000/svg" xmlns:xlink="http://www.w3.org/1999/xlink" x="0px" y="0px"
	 viewBox="0 0 100 100" style="enable-background:new 0 0 100 100;" xml:space="preserve">
<style type="text/css">
	.st0{fill:#CCAE7A;}
</style>
<title></title>
<path class="st0" d="M71,54h4.4l-9-37H33.6l-9,37h14.7c-0.7,2-1,4.1-1,6.2c-0.1,5.2,2.1,10.3,6,13.8h-3.5c-1.6,0.1-2.8,1.4-2.8,3
	c0,0.3,0.1,0,0.1,1h-0.2c-1.6,0-2.8,1.8-2.8,3.4c0,1.5,1.2,2.6,2.7,2.6c0.1,0,0.1,0,0.2,0h24.1c1.4,0.1,2.7-1,2.8-2.4
	c0-0.1,0-0.1,0-0.2c0-1.6-1.3-3.4-2.8-3.4h-0.2c0.1-1,0.1-0.7,0.1-1c0-1.6-1.2-2.9-2.8-3h-3.6c3.9-3.5,6.1-8.5,6-13.8
	c0-2.1-0.3-4.2-1-6.2H69v11h-2v6h6v-6h-2V54z M35.2,19h29.7l8,33H27.1L35.2,19z M62.9,81c0,0.5-0.3,0.9-0.8,1H37.9c-0.6,0-1-0.4-1-1
	s0.4-1,1-1h24.1C62.6,80.1,62.9,80.5,62.9,81z M59.2,76c0.6,0,1,0.4,1,1s-0.4,1-1,1H40.8c-0.6,0-1-0.4-1-1s0.4-1,1-1H59.2z
	 M59.7,59.9c0,7.6-4.3,13.6-9.7,13.6s-9.7-5.9-9.7-13.5c0-2,0.4-4.1,1.1-6h17.1C59.3,55.9,59.7,57.9,59.7,59.9z M71,68.5h-2v-2h2
	V68.5z M100,100H0V0h100V100z"/>
</svg>
