
<svg width="29px" height="38px" viewBox="0 0 29 38" version="1.1" xmlns="http://www.w3.org/2000/svg" xmlns:xlink="http://www.w3.org/1999/xlink">
    <!-- Generator: Sketch 46 (44423) - http://www.bohemiancoding.com/sketch -->
    <desc>Created with Sketch.</desc>
    <defs></defs>
    <g id="Page-1" stroke="none" stroke-width="1" fill="none" fill-rule="evenodd">
        <g id="premium-homepage" transform="translate(-1214.000000, -3241.000000)" fill="#CCAE7A">
            <g id="if_location_115718" transform="translate(1214.000000, 3241.000000)">
                <path d="M14.4024,21.073375 C18.3732,21.073375 21.6024,17.876625 21.6024,13.948375 C21.6024,10.020125 18.3732,6.823375 14.4024,6.823375 C10.4316,6.823375 7.2024,10.0189375 7.2024,13.948375 C7.2024,17.8778125 10.4316,21.073375 14.4024,21.073375 Z M14.3024,9.010875 C17.00524,9.010875 19.2024,11.1851479 19.2024,13.8598333 C19.2024,16.5345187 17.00524,18.7087917 14.3024,18.7087917 C11.59956,18.7087917 9.4024,16.5345187 9.4024,13.8598333 C9.4024,11.1851479 11.59956,9.010875 14.3024,9.010875 Z" id="Shape"></path>
                <path d="M14.4,0 C6.4584,0 0,6.31275 0,14.2511875 C0,22.5636875 7.2012,31.067375 12.4512,37.0440625 C12.4704,37.0678125 13.3128,38 14.3544,38 C14.3568,38 14.442,38 14.4468,38 C15.4872,38 16.3308,37.0678125 16.35,37.0440625 C21.6024,31.067375 28.8024,22.564875 28.8024,14.2511875 C28.8024,6.31275 22.3428,0 14.4,0 Z M14.5404,35.4860625 C14.5152,35.5098125 14.442,35.5620625 14.3784,35.6024375 C14.3664,35.570375 14.2776,35.5003125 14.2236,35.4445 C9.8256,30.4368125 2.4,21.985375 2.4,14.2511875 C2.4,7.7033125 7.7844,2.375 14.4,2.375 C21.0192,2.375 26.4024,7.7033125 26.4024,14.252375 C26.4024,21.985375 18.9768,30.4368125 14.5404,35.4860625 Z" id="Shape"></path>
            </g>
        </g>
    </g>
</svg>
