<svg width="15px" height="15px" viewBox="0 0 15 15" version="1.1" xmlns="http://www.w3.org/2000/svg" xmlns:xlink="http://www.w3.org/1999/xlink">
    <!-- Generator: Sketch 46 (44423) - http://www.bohemiancoding.com/sketch -->
    <desc>Created with Sketch.</desc>
    <defs></defs>
    <g id="Page-1" stroke="none" stroke-width="1" fill="none" fill-rule="evenodd">
        <g id="premium-homepage" transform="translate(-1044.000000, -239.000000)" fill-rule="nonzero" fill="#28323C">
            <g id="search-icon" transform="translate(1044.000000, 239.000000)">
                <path d="M9.40150257,10.8029936 C8.42833478,11.4965059 7.23759736,11.9044212 5.95159597,11.9044212 C2.66462011,11.9044212 0,9.23952587 0,5.95221058 C0,2.66489528 2.66462011,0 5.95159597,0 C9.23857182,0 11.9031919,2.66489528 11.9031919,5.95221058 C11.9031919,7.23834478 11.4953188,8.42920516 10.8018781,9.40247345 L14.7122875,13.3132867 C15.0975315,13.6985705 15.0943196,14.3150445 14.7121481,14.6972554 L14.6957378,14.7136674 C14.3145439,15.0949007 13.6940064,15.0959407 13.311912,14.7138069 L9.40150257,10.8029936 L9.40150257,10.8029936 Z M5.95159597,10.503901 C8.46516577,10.503901 10.5028164,8.46603996 10.5028164,5.95221058 C10.5028164,3.4383812 8.46516577,1.40052014 5.95159597,1.40052014 C3.43802616,1.40052014 1.40037552,3.4383812 1.40037552,5.95221058 C1.40037552,8.46603996 3.43802616,10.503901 5.95159597,10.503901 L5.95159597,10.503901 Z" id="search"></path>
            </g>
        </g>
    </g>
</svg>
